<svg width="95" height="63" viewBox="0 0 95 63" fill="none" xmlns="http://www.w3.org/2000/svg">
<circle cx="42.0944" cy="26.2135" r="3.66519" fill="#E77D21"/>
<circle cx="28.6556" cy="24.9914" r="7.33038" fill="#FEA150"/>
<circle cx="30.4866" cy="24.3804" r="5.49779" fill="black"/>
<path d="M38.2246 32.3217C39.0779 36.3747 42.5123 42.3689 49.4238 33.9215" stroke="#FEA150" stroke-width="1.27991" stroke-linecap="round"/>
<path d="M38.4699 35.2017C38.4699 35.2017 34.9836 35.7522 36.2681 37.7707C37.8101 40.1939 40.1217 37.2202 40.1217 37.2202" stroke="#FEA150" stroke-width="1.10102" stroke-linecap="round"/>
<path d="M17.3572 12.8338C15.4299 12.8338 13.5025 12.8338 11.5751 12.8338C10.84 12.8338 9.92395 12.6889 9.19983 12.8498C8.91195 12.9138 9.38671 13.5393 9.44775 13.6576C10.06 14.8439 10.2566 16.3433 10.4794 17.6323C11.7036 24.7137 12.0573 31.9862 12.5428 39.1455C12.9378 44.9704 13.1584 50.8052 13.5824 56.628C13.6831 58.01 13.7584 59.3853 13.7584 60.7707" stroke="#FEA150" stroke-width="3.66519" stroke-linecap="round"/>
<path d="M3 27.4348H17.2239" stroke="#FEA150" stroke-width="3.66519" stroke-linecap="round"/>
<path d="M72.4034 25.1207C70.6926 25.1207 69.5002 24.8937 68.2297 26.1642C67.3819 27.0119 67.852 28.7084 68.1833 29.6655C69.0115 32.0579 72.4157 30.7309 73.2382 29.0858" stroke="#E77D21" stroke-width="3.66519" stroke-linecap="round"/>
<path d="M73.4465 3C73.4465 12.6151 73.4465 22.2302 73.4465 31.8453C73.4465 35.0143 73.4465 38.1833 73.4465 41.3523C73.4465 41.7529 73.6179 42.4607 73.2378 42.6508" stroke="#E77D21" stroke-width="3.66519" stroke-linecap="round"/>
<path d="M81.1919 23.8805C82.1411 24.0703 84.9251 26.7867 85.7588 27.3425" stroke="#FEA150" stroke-width="3.9014" stroke-linecap="round"/>
<path d="M88.5194 22.5483C88.4556 23.6965 87.7371 24.8733 87.2976 25.9051C86.0792 28.7658 85.3706 32.0627 85.1009 35.1485C84.6274 40.5676 84.7487 45.884 87.1866 50.7598" stroke="#FEA150" stroke-width="3.9014" stroke-linecap="round"/>
<circle cx="55.532" cy="22.5479" r="7.33038" fill="#FEA150"/>
<circle cx="56.1443" cy="20.7153" r="5.49779" fill="black"/>
<path d="M29.8784 42.0953C29.8784 43.042 29.8827 46.0616 29.8827 47.0083C29.8827 48.363 29.7711 49.8407 30.6845 50.9593C31.0679 51.4289 31.4644 51.7139 32.0888 51.7139C32.7369 51.7139 33.3142 51.3038 33.6818 50.7916C34.3685 49.8348 33.748 48.7804 32.6547 48.6589C32.1008 48.5974 31.6662 49.0776 31.3552 49.4711C30.9526 49.9805 30.6418 50.5473 30.4015 51.1479" stroke="#333333" stroke-width="1.22173" stroke-linecap="round"/>
<path d="M49.8468 44.5393C49.8468 45.486 49.8468 46.4327 49.8468 47.3794C49.8468 48.7341 49.9584 50.2118 49.045 51.3304C48.6616 51.8 48.2651 52.085 47.6407 52.085C46.9926 52.085 46.4153 51.6749 46.0477 51.1627C45.361 50.2059 45.9814 49.1515 47.0748 49.03C47.6287 48.9685 48.0633 49.4487 48.3743 49.8422C48.7769 50.3517 49.0877 50.9184 49.328 51.5191" stroke="#333333" stroke-width="1.22173" stroke-linecap="round"/>
<path d="M58.398 43.317C58.398 44.2637 58.398 45.2104 58.398 46.1571C58.398 47.5118 58.5097 48.9895 57.5963 50.1081C57.2128 50.5778 56.8164 50.8627 56.192 50.8627C55.5439 50.8627 54.9666 50.4526 54.599 49.9404C53.9122 48.9836 54.5327 47.9292 55.6261 47.8077C56.18 47.7462 56.6146 48.2264 56.9256 48.6199C57.3282 49.1294 57.639 49.6961 57.8793 50.2968" stroke="#333333" stroke-width="1.22173" stroke-linecap="round"/>
<path d="M37.2065 45.974C37.2065 46.8113 37.3004 48.1606 38.2074 48.5574C38.4498 48.6634 38.8078 48.7132 39.0668 48.6412C39.7169 48.4606 40.0007 47.4174 40.1253 46.857C40.1963 46.5371 40.2961 46.0996 40.2222 45.767C40.209 45.7076 40.2425 46.0648 40.2456 46.1289C40.2819 46.891 40.3463 47.7447 40.5078 48.4892C40.5852 48.8463 40.421 48.0247 40.7436 49.6054" stroke="#333333" stroke-width="1.22173" stroke-linecap="round"/>
<path d="M62.8647 45.7605C62.8647 46.2442 63.043 46.648 63.5744 46.7213C64.2659 46.8167 64.8002 46.8466 65.2668 46.2723C65.34 46.1823 65.4496 46.0174 65.5337 45.9426C65.6006 45.8831 65.5216 46.1546 65.5212 46.1561C65.43 46.4457 65.3633 46.7461 65.2951 47.0416C64.7758 49.292 64.3716 51.5881 64.0517 53.8742C63.9057 54.917 63.8059 55.9757 63.5995 57.0078" stroke="#333333" stroke-width="1.22173" stroke-linecap="round"/>
</svg>
